<svg id="Layer_1" data-name="Layer 1" xmlns="http://www.w3.org/2000/svg" viewBox="0 0 600 599.94"><defs><style>.cls-1{fill:#3967b1;}.cls-2{fill:#d11e1e;}.cls-3{fill:#ce7777;}.cls-4{fill:#3e587c;}.cls-5{fill:#54769e;}.cls-6{fill:#fff;}</style></defs><title>ExtraLife</title><rect class="cls-1" y="119.94" width="40" height="40"/><rect class="cls-2" x="40" y="119.94" width="40" height="40"/><rect class="cls-1" x="40" y="279.94" width="40" height="40"/><rect class="cls-1" y="159.94" width="40" height="40"/><rect class="cls-1" y="239.94" width="40" height="40"/><rect class="cls-1" y="199.94" width="40" height="40"/><rect class="cls-1" x="40" y="319.94" width="40" height="40"/><rect class="cls-1" x="80" y="359.94" width="40" height="40"/><rect class="cls-1" x="120" y="399.94" width="40" height="40"/><rect class="cls-1" x="160" y="439.94" width="40" height="40"/><rect class="cls-1" x="200" y="479.94" width="40" height="40"/><rect class="cls-1" x="240" y="519.94" width="40" height="40"/><rect class="cls-1" x="280" y="559.94" width="40" height="40"/><rect class="cls-1" x="320" y="519.94" width="40" height="40"/><rect class="cls-1" x="360" y="479.94" width="40" height="40"/><rect class="cls-1" x="400" y="439.94" width="40" height="40"/><rect class="cls-1" x="440" y="399.94" width="40" height="40"/><rect class="cls-1" x="480" y="359.94" width="40" height="40"/><rect class="cls-1" x="520" y="319.94" width="40" height="40"/><rect class="cls-1" x="520" y="279.94" width="40" height="40"/><rect class="cls-1" x="560" y="239.94" width="40" height="40"/><rect class="cls-1" x="560" y="199.94" width="40" height="40"/><rect class="cls-1" x="560" y="159.94" width="40" height="40"/><rect class="cls-1" x="560" y="119.94" width="40" height="40"/><rect class="cls-1" x="520" y="79.94" width="40" height="40"/><rect class="cls-1" x="480" y="39.94" width="40" height="40"/><rect class="cls-1" x="440" y="-0.06" width="40" height="40"/><rect class="cls-1" x="40" y="80" width="40" height="40"/><rect class="cls-1" x="400" width="40" height="40"/><rect class="cls-1" x="360" width="40" height="40"/><rect class="cls-1" x="320" y="40" width="40" height="40"/><rect class="cls-1" x="280" y="80" width="40" height="40"/><rect class="cls-1" x="240" y="40" width="40" height="40"/><rect class="cls-1" x="200" width="40" height="40"/><rect class="cls-1" x="160" width="40" height="40"/><rect class="cls-1" x="120" width="40" height="40"/><rect class="cls-1" x="80" y="40" width="40" height="40"/><rect class="cls-2" x="80" y="80" width="40" height="40"/><rect class="cls-2" x="120" y="40" width="40" height="40"/><rect class="cls-3" x="80" y="119.94" width="40" height="40"/><rect class="cls-3" x="120" y="80" width="40" height="40"/><rect class="cls-2" x="160" y="40" width="40" height="40"/><rect class="cls-2" x="40" y="159.94" width="40" height="40"/><rect class="cls-2" x="40" y="199.94" width="40" height="40"/><rect class="cls-3" x="80" y="199.94" width="40" height="40"/><rect class="cls-2" x="120" y="199.94" width="40" height="40"/><rect class="cls-2" x="120" y="159.94" width="40" height="40"/><rect class="cls-2" x="160" y="119.94" width="40" height="40"/><rect class="cls-3" x="200" y="80" width="40" height="40"/><rect class="cls-2" x="200" y="40" width="40" height="40"/><rect class="cls-4" x="520" y="119.94" width="40" height="40"/><rect class="cls-4" x="520" y="159.94" width="40" height="40"/><rect class="cls-4" x="520" y="199.94" width="40" height="40"/><rect class="cls-4" x="520" y="239.94" width="40" height="40"/><rect class="cls-4" x="480" y="279.94" width="40" height="40"/><rect class="cls-4" x="480" y="319.94" width="40" height="40"/><rect class="cls-4" x="440" y="359.94" width="40" height="40"/><rect class="cls-4" x="400" y="399.94" width="40" height="40"/><rect class="cls-4" x="360" y="439.94" width="40" height="40"/><rect class="cls-4" x="320" y="479.94" width="40" height="40"/><rect class="cls-2" x="280" y="519.94" width="40" height="40"/><rect class="cls-5" x="440" y="39.94" width="40" height="40"/><rect class="cls-5" x="480" y="80" width="40" height="40"/><rect class="cls-5" x="480" y="119.94" width="40" height="40"/><rect class="cls-5" x="480" y="159.94" width="40" height="40"/><rect class="cls-5" x="480" y="199.94" width="40" height="40"/><rect class="cls-5" x="480" y="239.94" width="40" height="40"/><rect class="cls-5" x="440" y="319.94" width="40" height="40"/><rect class="cls-5" x="440" y="279.94" width="40" height="40"/><rect class="cls-6" x="400" y="359.94" width="40" height="40"/><rect class="cls-5" x="360" y="399.94" width="40" height="40"/><rect class="cls-2" x="320" y="439.94" width="40" height="40"/><rect class="cls-2" x="280" y="479.94" width="40" height="40"/><rect class="cls-2" x="40" y="239.94" width="40" height="40"/><rect class="cls-2" x="80" y="239.94" width="40" height="40"/><rect class="cls-2" x="120" y="239.94" width="40" height="40"/><rect class="cls-2" x="80" y="279.94" width="40" height="40"/><rect class="cls-2" x="80" y="319.94" width="40" height="40"/><rect class="cls-2" x="120" y="279.94" width="40" height="40"/><rect class="cls-2" x="120" y="319.94" width="40" height="40"/><rect class="cls-2" x="120" y="359.94" width="40" height="40"/><rect class="cls-2" x="160" y="159.94" width="40" height="40"/><rect class="cls-2" x="160" y="199.94" width="40" height="40"/><rect class="cls-2" x="160" y="239.94" width="40" height="40"/><rect class="cls-6" x="160" y="279.94" width="40" height="40"/><rect class="cls-2" x="160" y="319.94" width="40" height="40"/><rect class="cls-2" x="160" y="359.94" width="40" height="40"/><rect class="cls-2" x="160" y="399.94" width="40" height="40"/><rect class="cls-2" x="200" y="439.94" width="40" height="40"/><rect class="cls-2" x="200" y="399.94" width="40" height="40"/><rect class="cls-2" x="200" y="359.94" width="40" height="40"/><rect class="cls-6" x="200" y="319.94" width="40" height="40"/><rect class="cls-6" x="200" y="279.94" width="40" height="40"/><rect class="cls-6" x="200" y="239.94" width="40" height="40"/><rect class="cls-2" x="200" y="199.94" width="40" height="40"/><rect class="cls-2" x="200" y="159.94" width="40" height="40"/><rect class="cls-2" x="200" y="119.94" width="40" height="40"/><rect class="cls-2" x="240" y="80" width="40" height="40"/><rect class="cls-2" x="240" y="119.94" width="40" height="40"/><rect class="cls-2" x="240" y="159.94" width="40" height="40"/><rect class="cls-2" x="240" y="199.94" width="40" height="40"/><rect class="cls-2" x="240" y="239.94" width="40" height="40"/><rect class="cls-6" x="240" y="279.94" width="40" height="40"/><rect class="cls-2" x="240" y="319.94" width="40" height="40"/><rect class="cls-2" x="240" y="359.94" width="40" height="40"/><rect class="cls-2" x="240" y="399.94" width="40" height="40"/><rect class="cls-2" x="240" y="439.94" width="40" height="40"/><rect class="cls-2" x="240" y="479.94" width="40" height="40"/><rect class="cls-2" x="280" y="119.94" width="40" height="40"/><rect class="cls-2" x="280" y="159.94" width="40" height="40"/><rect class="cls-2" x="280" y="199.94" width="40" height="40"/><rect class="cls-2" x="280" y="239.94" width="40" height="40"/><rect class="cls-2" x="280" y="279.94" width="40" height="40"/><rect class="cls-2" x="280" y="319.94" width="40" height="40"/><rect class="cls-2" x="280" y="359.94" width="40" height="40"/><rect class="cls-2" x="280" y="399.94" width="40" height="40"/><rect class="cls-2" x="280" y="439.94" width="40" height="40"/><rect class="cls-2" x="320" y="399.94" width="40" height="40"/><rect class="cls-6" x="320" y="359.94" width="40" height="40"/><rect class="cls-2" x="320" y="319.94" width="40" height="40"/><rect class="cls-2" x="320" y="279.94" width="40" height="40"/><rect class="cls-2" x="320" y="239.94" width="40" height="40"/><rect class="cls-6" x="320" y="199.94" width="40" height="40"/><rect class="cls-2" x="320" y="159.94" width="40" height="40"/><rect class="cls-2" x="320" y="119.94" width="40" height="40"/><rect class="cls-2" x="320" y="80" width="40" height="40"/><rect class="cls-2" x="360" y="40" width="40" height="40"/><rect class="cls-2" x="360" y="80" width="40" height="40"/><rect class="cls-2" x="360" y="119.94" width="40" height="40"/><rect class="cls-2" x="360" y="159.94" width="40" height="40"/><rect class="cls-6" x="360" y="199.94" width="40" height="40"/><rect class="cls-6" x="360" y="239.94" width="40" height="40"/><rect class="cls-6" x="360" y="279.94" width="40" height="40"/><rect class="cls-6" x="360" y="319.94" width="40" height="40"/><rect class="cls-6" x="360" y="359.94" width="40" height="40"/><rect class="cls-2" x="400" y="319.94" width="40" height="40"/><rect class="cls-2" x="400" y="279.94" width="40" height="40"/><rect class="cls-2" x="400" y="239.94" width="40" height="40"/><rect class="cls-2" x="400" y="199.94" width="40" height="40"/><rect class="cls-2" x="400" y="159.94" width="40" height="40"/><rect class="cls-2" x="400" y="119.94" width="40" height="40"/><rect class="cls-2" x="400" y="80" width="40" height="40"/><rect class="cls-2" x="400" y="40" width="40" height="40"/><rect class="cls-2" x="398" y="80.94" width="40" height="40"/><rect class="cls-2" x="440" y="79.94" width="40" height="40"/><rect class="cls-2" x="440" y="119.94" width="40" height="40"/><rect class="cls-2" x="440" y="159.94" width="40" height="40"/><rect class="cls-2" x="440" y="199.94" width="40" height="40"/><rect class="cls-2" x="440" y="239.94" width="40" height="40"/><rect class="cls-6" x="80" y="159.94" width="40" height="40"/><rect class="cls-6" x="120" y="119.94" width="40" height="40"/><rect class="cls-6" x="160" y="80" width="40" height="40"/></svg>