<?xml version="1.0" encoding="utf-8"?>
<!-- Generator: Adobe Illustrator 20.0.0, SVG Export Plug-In . SVG Version: 6.00 Build 0)  -->
<svg version="1.1" id="Layer_1" xmlns="http://www.w3.org/2000/svg" xmlns:xlink="http://www.w3.org/1999/xlink" x="0px" y="0px"
	 viewBox="0 0 900 900" style="enable-background:new 0 0 900 900;" xml:space="preserve">
<style type="text/css">
	.st0{fill:none;}
</style>
<line class="st0" x1="301" y1="0" x2="293" y2="356.8"/>
<line class="st0" x1="583.6" y1="0" x2="579.5" y2="346"/>
<line class="st0" x1="286.3" y1="0" x2="279.5" y2="458.1"/>
<g>
	<g>
		<path d="M-255.8,148.7c0,0.9,0,1.8,0,2.7c0,0.8,0.7,1.5,1.5,1.5c0.8,0,1.5-0.7,1.5-1.5c0-0.9,0-1.8,0-2.7c0-0.8-0.7-1.5-1.5-1.5
			C-255.1,147.2-255.8,147.9-255.8,148.7L-255.8,148.7z"/>
	</g>
</g>
<g>
	<g>
		<path d="M6,154.5C50.2,105.3,94.4,56.2,138.6,7.1c-1.7-1-3.3-1.9-5-2.9c-31.2,74.3-60.6,149.5-88,225.3
			c-7.7,21.4-15.3,42.9-22.7,64.4c-1.2,3.4,3.7,5,5.5,2.3c52.6-77,105.2-154,162.5-227.6c16.2-20.7,32.7-41.2,49.7-61.3
			c-1.6-1.2-3.1-2.4-4.7-3.6c-40.9,73-77.2,148.6-108.7,226.1c-9,22.1-17.6,44.3-25.8,66.7c-1.2,3.2,4,5.3,5.5,2.3
			c39.7-78.5,84-154.6,132.8-227.8c13.8-20.8,28-41.3,42.5-61.6c-1.7-1-3.5-2-5.2-3c-40.9,71.9-76.3,146.8-105.8,224
			c-8.4,22-16.3,44.2-23.8,66.5c-0.9,2.8,3,5.1,5,2.9C223,221.5,295.9,145.2,371,71.1c21.2-20.9,42.7-41.7,64.2-62.3
			c-1.6-1.2-3.1-2.4-4.7-3.6C384,73.8,351.4,150.4,323.3,228.1c-8,22.1-15.7,44.3-23.2,66.6c-1.1,3.3,3.8,5.2,5.5,2.3
			c45.4-75.7,90.7-151.4,136.1-227.1c13-21.6,25.9-43.3,38.9-64.9c-1.8-0.8-3.7-1.5-5.5-2.3c-30.5,75.1-61,150.2-91.5,225.3
			c-8.8,21.5-17.5,43.1-26.3,64.6c-1.3,3.2,3.9,5.3,5.5,2.3c41.7-78.1,87.6-154,137.4-227.2c14.1-20.8,28.6-41.3,43.3-61.7
			c-1.8-0.8-3.7-1.5-5.5-2.3c-18.6,76.1-44.8,150.1-73.5,223c-8.2,20.7-16.6,41.4-25,62c-1.2,2.8,3.1,5,5,2.9
			c56.5-62.8,96.3-138.3,126.9-216.6c8.8-22.5,16.8-45.3,24.4-68.2c-1.9-0.5-3.9-1.1-5.8-1.6c-15.1,77.3-31.7,154.4-49.8,231.1
			c-5.1,21.7-10.4,43.4-15.8,65.1c-0.9,3.7,4.7,5.3,5.8,1.6c23.6-84.3,77.5-155,119.4-230.5c11.7-21.1,22.5-42.7,31.7-65
			c-1.9-0.5-3.9-1.1-5.8-1.6c-17.5,76-34.9,152-52.4,227.9c-5,21.7-10,43.3-14.9,65c-0.7,3.2,3.9,5.5,5.5,2.3
			c38.2-74.3,72.3-150.7,102.3-228.7c8.5-22.2,16.7-44.5,24.5-66.9c-2-0.3-3.9-0.5-5.9-0.8c-8.4,75.8-20.9,151.1-37.5,225.5
			c-4.7,20.9-9.6,41.7-14.9,62.4c-1,3.7,4.8,5.3,5.8,1.6c21.5-79.2,57.1-153.4,95.5-225.6c10.8-20.4,21.9-40.7,33-61
			c-1.8-0.8-3.7-1.5-5.5-2.3c-15.9,76.3-31.7,152.6-47.6,229c-4.5,21.5-8.9,43.1-13.4,64.6c-0.8,3.8,4.5,5.2,5.8,1.6
			c28.2-80.1,56.6-160.5,93.9-236.9C860,42.1,871.2,21,883.2,0.5c-1.8-0.8-3.7-1.5-5.5-2.3c-14.9,75.6-29.8,151.2-44.8,226.8
			c-4.2,21.5-8.5,43-12.7,64.5c-0.8,3.8,4.4,5.2,5.8,1.6c19.4-51,44.5-99.8,74.5-145.3c2.1-3.2-3.1-6.2-5.2-3
			c-30.4,46-55.5,95.2-75.1,146.8c1.9,0.5,3.9,1.1,5.8,1.6c14.9-75.6,29.8-151.2,44.8-226.8c4.2-21.5,8.5-43,12.7-64.5
			c0.6-3.2-3.7-5.4-5.5-2.3c-42.9,73.7-74.8,153.1-103.8,233c-8.3,22.7-16.3,45.6-24.4,68.4c1.9,0.5,3.9,1.1,5.8,1.6
			c15.9-76.3,31.7-152.6,47.6-229c4.5-21.5,8.9-43.1,13.4-64.6c0.7-3.2-3.8-5.4-5.5-2.3c-39.3,72-78.8,144.4-107.6,221.5
			c-8.2,21.9-15.4,44.1-21.5,66.6c1.9,0.5,3.9,1.1,5.8,1.6c19-74.4,33.9-149.9,44.6-226c3-21.1,5.6-42.3,8-63.5
			c0.4-3.5-4.8-3.8-5.9-0.8c-27.5,78.7-59.1,155.9-94.9,231.2c-10.1,21.2-20.5,42.2-31.2,63c1.8,0.8,3.7,1.5,5.5,2.3
			c17.5-76,34.9-152,52.4-227.9c5-21.7,10-43.3,14.9-65c0.9-3.9-4.4-5.1-5.8-1.6C642.4,86.7,587,155.6,549.8,234.3
			c-10.2,21.7-19,44-25.5,67.1c1.9,0.5,3.9,1.1,5.8,1.6c19-76.5,36.5-153.3,52.4-230.5c4.5-21.9,8.9-43.8,13.2-65.7
			c0.7-3.8-4.6-5.3-5.8-1.6c-26.1,79.2-58.4,157.2-105.8,226.2c-13.4,19.6-28.1,38.3-44,55.9c1.7,1,3.3,1.9,5,2.9
			c29.8-72.5,58.4-145.5,81-220.6c6.4-21.3,12.3-42.8,17.6-64.5c0.8-3.5-3.5-5-5.5-2.3c-52,71.7-100.2,146.1-144.2,222.9
			c-12.5,21.8-24.7,43.8-36.5,65.9c1.8,0.8,3.7,1.5,5.5,2.3c30.5-75.1,61-150.2,91.5-225.3c8.8-21.5,17.5-43.1,26.3-64.6
			c1.3-3.2-3.8-5.1-5.5-2.3C430,77.6,384.6,153.3,339.2,229c-13,21.6-25.9,43.3-38.9,64.9c1.8,0.8,3.7,1.5,5.5,2.3
			c26.5-78,54.4-156.2,93.9-228.7c11.1-20.3,23-40.1,36-59.2c2-2.9-2.3-5.9-4.7-3.6c-76.4,72.8-150.6,147.8-222.5,225
			c-20.3,21.8-40.5,43.8-60.4,66c1.7,1,3.3,1.9,5,2.9c26.1-78.2,58.1-154.5,95.8-227.8c10.6-20.7,21.7-41.1,33.2-61.3
			c1.9-3.4-3-6.1-5.2-3c-51.1,71.5-98.1,146.1-140.4,223.2c-12,21.9-23.6,43.9-34.9,66.2c1.8,0.8,3.7,1.5,5.5,2.3
			c28.7-78.4,62.3-155,100.5-229.2c10.8-20.9,21.9-41.6,33.4-62.2c1.6-2.9-2.4-6.3-4.7-3.6C176,74.4,121.5,150.4,68.4,227.2
			c-15.1,21.9-30.1,43.9-45.2,65.9c1.8,0.8,3.7,1.5,5.5,2.3C55,219.2,83.2,143.7,113.4,68.9c8.5-21.1,17.2-42.1,26-63.1
			c1.2-2.8-3.1-5-5-2.9C90.1,52,45.9,101.1,1.7,150.2C-0.9,153.1,3.4,157.3,6,154.5L6,154.5z"/>
	</g>
</g>
</svg>
