<?xml version="1.0" encoding="utf-8"?>
<!-- Generator: Adobe Illustrator 20.0.0, SVG Export Plug-In . SVG Version: 6.00 Build 0)  -->
<svg version="1.1" id="Layer_1" xmlns="http://www.w3.org/2000/svg" xmlns:xlink="http://www.w3.org/1999/xlink" x="0px" y="0px"
	 viewBox="0 0 667.6 98.4" style="enable-background:new 0 0 667.6 98.4;" xml:space="preserve">
<g>
	<g>
		<path d="M-9.2,29.8C-4.4,13.4,3.6-1.7,14.5-14.8c-0.8-0.5-1.7-1-2.5-1.5C0.8,32.3-5.7,81.8-7.2,131.6c-0.1,1.8,2.4,1.9,2.9,0.4
			C19.2,70,42.7,8,66.2-53.9c-1-0.3-1.9-0.5-2.9-0.8C41.9,2.5,27.5,62,20.2,122.7c-0.2,1.5,2.1,2,2.8,0.8
			c25.7-50.3,51.5-100.7,77.2-151c-0.9-0.4-1.8-0.8-2.7-1.2C79.6,20,64,69.5,50.7,119.6c-0.4,1.6,2.1,2.8,2.7,1.2
			c23-53.7,47.3-106.8,73-159.2c-0.9-0.4-1.8-0.8-2.7-1.2C111.5,6.3,99.2,52.3,87,98.2c-0.4,1.6,2,2.7,2.7,1.2
			c18.3-38.3,36.7-76.6,55-115c-0.9-0.4-1.8-0.8-2.7-1.2C133,29,124,74.8,115.1,120.6c-0.3,1.6,1.9,2.8,2.7,1.2
			C143.5,71.2,164.4,18.6,185.2-34c-1-0.3-1.9-0.5-2.9-0.8c-14.2,56.5-27.9,113.2-41.1,169.9c-0.4,1.9,2.2,2.6,2.9,0.8
			C163.9,83.8,186,32.5,210.2-17.8c-0.9-0.4-1.8-0.8-2.7-1.2c-6.7,39.7-13.4,79.5-20.2,119.2c-0.3,1.5,2,2.8,2.7,1.2
			c19.5-41.5,36.7-84.1,51.4-127.5c-1-0.3-1.9-0.5-2.9-0.8c-8.1,45.6-17.2,91-27.3,136.2c-0.4,1.6,2,2.8,2.7,1.2
			c21.8-51.6,44.2-103,67.1-154.1c-0.9-0.4-1.8-0.8-2.7-1.2c-18.7,53.5-33.8,108.2-44.9,163.7c-0.3,1.5,2,2.8,2.7,1.2
			c24.1-56.7,50.3-112.6,78.4-167.4c-0.9-0.4-1.8-0.8-2.7-1.2C294.9,10,278,68.5,261.1,127c-0.5,1.6,2,2.7,2.7,1.2
			c21.7-46.7,43.5-93.3,65.2-140c-0.9-0.4-1.8-0.8-2.7-1.2c-17.2,59-34.4,118-51.6,177c-0.5,1.9,2.2,2.6,2.9,0.8
			C300,103.7,326.5,44.1,357-13.5c-0.9-0.4-1.8-0.8-2.7-1.2C333,41.1,311.8,96.8,290.6,152.6c1,0.3,1.9,0.5,2.9,0.8
			C314.4,93,339.3,34.1,368-22.9c-0.9-0.4-1.8-0.8-2.7-1.2C347.1,29,330.8,82.6,316.2,136.8c-0.5,1.9,2.2,2.5,2.9,0.8
			C344.3,77.1,374.3,18.7,408.6-37c-0.9-0.4-1.8-0.8-2.7-1.2c-24.3,65.7-48.7,131.4-73,197.1c-0.7,1.8,2.2,2.5,2.9,0.8
			c25.3-60.5,55-119.1,88.8-175.2c9.6-15.9,19.5-31.6,29.8-47.1c-0.9-0.4-1.8-0.8-2.7-1.2C424.6,3.2,397.7,70.1,370.8,137
			c-0.6,1.6,2,2.6,2.7,1.2C409,71.2,448.9,6.6,492.8-55.2c-0.9-0.5-1.7-1-2.6-1.5C460.8,6.8,432.9,71.1,406.7,136
			c-0.6,1.6,1.9,2.6,2.7,1.2c33.5-59.4,69.3-117.5,107.5-174.1c-0.9-0.4-1.8-0.8-2.7-1.2c-24.3,59-48.7,118-73,177
			c-0.6,1.6,2,2.7,2.7,1.2c31-61.1,66.3-119.9,105.7-175.9c-0.9-0.5-1.7-1-2.6-1.5C518.2,18.4,490.9,75,465.4,132.3
			c-0.8,1.8,1.5,3.1,2.6,1.5c38.5-54.9,77-109.8,115.4-164.7c-0.9-0.5-1.7-1-2.6-1.5c-27,50.8-54,101.6-81,152.4
			c-0.8,1.4,1.3,3.2,2.4,1.8c31.7-40.1,60.5-82.3,86.2-126.5c1-1.7-1.6-3.2-2.6-1.5c-25.5,43.9-54.2,86-85.7,125.9
			c0.8,0.6,1.6,1.2,2.4,1.8c27-50.8,54-101.6,81-152.4c0.9-1.7-1.5-3.1-2.6-1.5c-38.5,54.9-77,109.8-115.4,164.7
			c0.9,0.5,1.7,1,2.6,1.5C493.5,76.5,520.8,20,549.6-35.8c0.9-1.7-1.5-3.1-2.6-1.5c-39.4,56-74.8,114.8-105.7,175.9
			c0.9,0.4,1.8,0.8,2.7,1.2c24.3-59,48.7-118,73-177c0.7-1.7-1.8-2.5-2.7-1.2c-38.2,56.5-74,114.6-107.5,174.1
			c0.9,0.4,1.8,0.8,2.7,1.2c26.2-64.7,53.9-128.7,83.2-192c0.8-1.8-1.5-3.1-2.6-1.5C446.3,5.1,406.4,69.7,371,136.7
			c0.9,0.4,1.8,0.8,2.7,1.2C400.6,70.9,427.5,4,454.4-63c0.7-1.6-1.9-2.5-2.7-1.2C415.4-9.1,383,48.6,355.2,108.4
			c-7.8,16.7-15.2,33.5-22.3,50.5c1,0.3,1.9,0.5,2.9,0.8c24.3-65.7,48.7-131.4,73-197.1c0.6-1.6-1.9-2.6-2.7-1.2
			c-34.5,56-64.6,114.6-89.9,175.3c1,0.3,1.9,0.5,2.9,0.8c14.6-54.1,31-107.8,49.1-160.9c0.5-1.6-2-2.7-2.7-1.2
			c-28.8,57.3-53.8,116.4-74.8,177c-0.6,1.8,2.2,2.6,2.9,0.8c21.2-55.7,42.4-111.5,63.6-167.2c0.6-1.6-2-2.6-2.7-1.2
			c-30.6,57.8-57.2,117.7-79.6,179.1c1,0.3,1.9,0.5,2.9,0.8c17.2-59,34.4-118,51.6-177c0.5-1.6-2-2.7-2.7-1.2
			c-21.7,46.7-43.5,93.3-65.2,140c0.9,0.4,1.8,0.8,2.7,1.2c16.9-58.5,33.8-117,50.8-175.5c0.5-1.6-2-2.7-2.7-1.2
			C283.9,6,257.7,61.9,233.6,118.6c0.9,0.4,1.8,0.8,2.7,1.2C247.5,64.2,262.5,9.5,281.3-44c0.6-1.6-2-2.7-2.7-1.2
			C255.6,6,233.2,57.3,211.4,108.9c0.9,0.4,1.8,0.8,2.7,1.2c10.2-45.2,19.3-90.6,27.3-136.2c0.3-1.9-2.3-2.6-2.9-0.8
			c-14.7,43.2-31.7,85.5-51.1,126.8c0.9,0.4,1.8,0.8,2.7,1.2c6.7-39.7,13.4-79.5,20.2-119.2c0.3-1.5-1.9-2.8-2.7-1.2
			c-24.4,50.5-46.5,102-66.5,154.4c1,0.3,1.9,0.5,2.9,0.8C157.2,79.1,171,22.5,185.2-34c0.5-1.9-2.2-2.6-2.9-0.8
			c-20.7,52.4-41.6,104.8-67.1,155c0.9,0.4,1.8,0.8,2.7,1.2c9-45.8,17.9-91.6,26.9-137.4c0.3-1.6-2-2.8-2.7-1.2
			c-18.3,38.3-36.7,76.6-55,115c0.9,0.4,1.8,0.8,2.7,1.2c12.2-45.9,24.5-91.8,36.7-137.7c0.4-1.6-2-2.7-2.7-1.2
			c-25.7,52.4-50,105.5-73,159.2c0.9,0.4,1.8,0.8,2.7,1.2c13.2-50.2,28.8-99.7,46.7-148.3c0.6-1.6-2-2.7-2.7-1.2
			c-25.7,50.3-51.5,100.7-77.2,151c0.9,0.3,1.9,0.5,2.8,0.8C30.4,62.3,44.9,3,66.2-53.9c0.7-1.8-2.2-2.6-2.9-0.8
			c-23.5,62-46.9,124-70.4,186c1,0.1,2,0.3,2.9,0.4c1.5-49.5,7.9-98.8,19.1-147.1c0.3-1.3-1.5-2.7-2.5-1.5C1.1-3.4-7.1,12.1-12,29
			C-12.6,30.9-9.7,31.6-9.2,29.8L-9.2,29.8z"/>
	</g>
</g>
<g>
	<g>
		<path d="M587.7-5.6c-0.4,36.6-0.8,73.2-1.1,109.7c0,1.6,2.6,2.1,2.9,0.4c6.3-33.9,12.4-67.8,18.9-101.6
			c4.6-24.2,11.7-52.8,35.4-65.1c1.2-0.6,0.8-2.3-0.4-2.7c-43-15.3-88.4-21-133.7-24.6c-48.4-3.8-96.9-6.6-145.3-9.3
			c-98.2-5.6-196.5-10.1-294.8-14.1c-55.1-2.3-110.2-4.4-165.4-6.5c0,1,0,2,0,3c123.8-4.6,247.8-4.7,371.7-0.2
			c30.5,1.1,60.9,2.5,91.3,4.2c25.7,1.4,51.5,2.9,77,6.9c48,7.6,95.6,25.3,125.2,65.8c32.4,44.4,39,102.1,42.3,155.4
			c0.1,1.7,2.4,2,2.9,0.4C638.2,45,661.6-26.1,685-97.2c-1-0.3-1.9-0.5-2.9-0.8c-7.8,46.4-15.6,92.8-23.5,139.2
			c-0.3,1.9,2.3,2.7,2.9,0.8c11.3-33.3,26-65.4,44-95.6c-0.9-0.3-1.9-0.5-2.8-0.8c1.7,29.6,0.8,59.3-2.5,88.8c-0.2,1.9,2.8,1.9,3,0
			c3.4-29.5,4.2-59.2,2.5-88.8c-0.1-1.4-2-2.1-2.8-0.8C684.8-24.7,670,7.6,658.7,41.2c1,0.3,1.9,0.5,2.9,0.8
			c7.8-46.4,15.6-92.8,23.5-139.2c0.3-1.9-2.3-2.7-2.9-0.8c-23.4,71.1-46.8,142.2-70.2,213.3c1,0.1,2,0.3,2.9,0.4
			c-2.9-47.8-8.5-98-32.2-140.5c-11.5-20.5-27.3-38.3-46.8-51.4C516-89.6,493.4-98,470.4-103.5c-23.8-5.7-48.2-8.4-72.5-10.1
			c-30-2.2-60.1-3.5-90.1-4.8c-63.2-2.7-126.5-4.2-189.8-4.6c-71.2-0.4-142.5,0.8-213.7,3.5c-1.9,0.1-1.9,2.9,0,3
			c97.6,3.8,195.3,7.6,292.9,12.1C294.6-99.9,392-94.7,489.3-88c51.8,3.6,104.1,8.4,153.4,26c-0.1-0.9-0.2-1.8-0.4-2.7
			c-23.1,12-31.1,38.9-36,62.7c-7.2,35.1-13.2,70.6-19.7,105.8c1,0.1,2,0.3,2.9,0.4c0.4-36.6,0.8-73.2,1.1-109.7
			C590.7-7.5,587.7-7.5,587.7-5.6L587.7-5.6z"/>
	</g>
</g>
</svg>
